<svg xmlns="http://www.w3.org/2000/svg" xmlns:xlink="http://www.w3.org/1999/xlink" viewBox="0 0 138.7 192.5"><defs><linearGradient id="a" x1="175.72" x2="470" y1="737.02" y2="737.02" gradientTransform="translate(8046.6 409.49)scale(.47131)" gradientUnits="userSpaceOnUse"><stop offset="0" stop-color="#1b4a78"/><stop offset="1" stop-color="#5dacd1"/></linearGradient><linearGradient xlink:href="#a" id="b" x1="175.72" x2="470" y1="737.02" y2="737.02" gradientTransform="translate(8046.6 409.49)scale(.47131)" gradientUnits="userSpaceOnUse"/><linearGradient xlink:href="#a" id="c" x1="175.72" x2="470" y1="737.02" y2="737.02" gradientTransform="translate(8046.6 409.49)scale(.47131)" gradientUnits="userSpaceOnUse"/><linearGradient xlink:href="#a" id="d" x1="175.72" x2="470" y1="737.02" y2="737.02" gradientTransform="translate(8046.6 409.49)scale(.47131)" gradientUnits="userSpaceOnUse"/></defs><path fill="url(#a)" d="M8129.4 721.68v.295c.01-.098.021-.198.029-.295zm138.62 0c.03.33.059.668.059 1.002v-1.002Zm.059 1.002c0 15.051-31.075 27.261-69.356 27.261-37.683 0-68.376-11.828-69.326-26.555v40.68c-.015.234-.015.458-.015.693 0 .225 0 .453.015.677.912 14.741 31.619 26.6 69.326 26.6 37.708 0 68.415-11.859 69.326-26.6h.029v-42.756z" style="fill:url(#b)" transform="translate(-8129.35 -599.53)"/><path fill="#3a78a0" d="M138.757 125.26c0 15.06-31.05 27.268-69.349 27.268-38.3 0-69.348-12.21-69.348-27.268 0-15.06 31.049-27.268 69.348-27.268 38.301 0 69.349 12.209 69.349 27.268z"/><path fill="url(#a)" d="M8129.4 721.68v.295c.01-.098.021-.198.029-.295zm138.62 0c.03.33.059.668.059 1.002v-1.002Zm.059 1.002c0 15.051-31.075 27.261-69.356 27.261-37.683 0-68.376-11.828-69.326-26.555v40.68c-.015.234-.015.458-.015.693 0 .225 0 .453.015.677.912 14.741 31.619 26.6 69.326 26.6 37.708 0 68.415-11.859 69.326-26.6h.029v-42.756z" style="fill:url(#c)" transform="translate(-8129.35 -647.53)"/><path fill="#3a78a0" d="M138.757 77.26c0 15.06-31.05 27.268-69.349 27.268-38.3 0-69.348-12.21-69.348-27.268 0-15.06 31.049-27.268 69.348-27.268 38.301 0 69.349 12.209 69.349 27.268z"/><path fill="url(#a)" d="M8129.4 721.68v.295c.01-.098.021-.198.029-.295zm138.62 0c.03.33.059.668.059 1.002v-1.002Zm.059 1.002c0 15.051-31.075 27.261-69.356 27.261-37.683 0-68.376-11.828-69.326-26.555v40.68c-.015.234-.015.458-.015.693 0 .225 0 .453.015.677.912 14.741 31.619 26.6 69.326 26.6 37.708 0 68.415-11.859 69.326-26.6h.029v-42.756z" style="fill:url(#d)" transform="translate(-8129.35 -697.53)"/><path fill="#3a78a0" d="M138.757 27.26c0 15.06-31.05 27.268-69.349 27.268C31.108 54.528.06 42.318.06 27.26.06 12.2 31.109-.008 69.408-.008c38.301 0 69.349 12.209 69.349 27.268z"/><text xml:space="preserve" x="14.66" y="79.603" style="font-size:59.7926px;font-family:&quot;Arial Black&quot;;-inkscape-font-specification:&quot;Arial Black, Normal&quot;;fill:#fff;fill-opacity:1;stroke:none;stroke-width:15.1468;stroke-linecap:round;stroke-linejoin:round" transform="scale(.6047 1.6537)"><tspan x="14.66" y="79.603" style="stroke-width:15.1468">WNDB</tspan></text></svg>